<svg width="16" height="18" viewBox="0 0 16 18" fill="none" xmlns="http://www.w3.org/2000/svg">
<path d="M5.01837 15.0767C5.09578 15.1543 5.18774 15.2159 5.28898 15.2579C5.39022 15.2999 5.49876 15.3215 5.60837 15.3215C5.71798 15.3215 5.82652 15.2999 5.92776 15.2579C6.029 15.2159 6.12096 15.1543 6.19837 15.0767L11.805 9.47005C11.8668 9.40837 11.9159 9.33511 11.9493 9.25446C11.9828 9.17381 12 9.08736 12 9.00005C12 8.91273 11.9828 8.82628 11.9493 8.74563C11.9159 8.66498 11.8668 8.59172 11.805 8.53005L6.19837 2.92338C5.8717 2.59671 5.34504 2.59671 5.01837 2.92338C4.69171 3.25005 4.69171 3.77671 5.01837 4.10338L9.9117 8.99671L5.01171 13.8967C4.69171 14.2234 4.69171 14.75 5.01837 15.0767Z" fill="white"/>
</svg>
