<svg width="17" height="16" viewBox="0 0 17 16" fill="none" xmlns="http://www.w3.org/2000/svg">
<path d="M2.60163 4.63208C2.52403 4.70949 2.46246 4.80145 2.42045 4.90269C2.37844 5.00393 2.35681 5.11247 2.35681 5.22208C2.35681 5.33169 2.37844 5.44023 2.42045 5.54147C2.46246 5.64271 2.52403 5.73467 2.60163 5.81208L8.2083 11.4187C8.26998 11.4805 8.34323 11.5296 8.42388 11.563C8.50453 11.5965 8.59099 11.6137 8.6783 11.6137C8.76561 11.6137 8.85207 11.5965 8.93272 11.563C9.01336 11.5296 9.08662 11.4805 9.1483 11.4187L14.755 5.81208C15.0816 5.48541 15.0816 4.95875 14.755 4.63208C14.4283 4.30541 13.9016 4.30541 13.575 4.63208L8.68163 9.52541L3.78163 4.62541C3.45497 4.30541 2.9283 4.30541 2.60163 4.63208Z" fill="white"/>
</svg>
