<svg width="8" height="13" viewBox="0 0 8 13" fill="none" xmlns="http://www.w3.org/2000/svg">
<path d="M0.245851 12.5765C0.32326 12.6541 0.415218 12.7156 0.51646 12.7577C0.617702 12.7997 0.726237 12.8213 0.835849 12.8213C0.945462 12.8213 1.054 12.7997 1.15524 12.7577C1.25648 12.7156 1.34844 12.6541 1.42585 12.5765L7.03252 6.9698C7.09432 6.90813 7.14335 6.83487 7.1768 6.75422C7.21026 6.67357 7.22748 6.58711 7.22748 6.4998C7.22748 6.41249 7.21026 6.32603 7.1768 6.24539C7.14335 6.16474 7.09432 6.09148 7.03252 6.0298L1.42585 0.423135C1.09918 0.0964684 0.572518 0.0964684 0.245852 0.423135C-0.0808149 0.749801 -0.080815 1.27647 0.245852 1.60313L5.13918 6.49647L0.239184 11.3965C-0.080816 11.7231 -0.0808159 12.2498 0.245851 12.5765V12.5765Z" fill="#614C4C"/>
</svg>
