<svg width="16" height="17" viewBox="0 0 16 17" fill="none" xmlns="http://www.w3.org/2000/svg">
<path d="M10.4 13.1004C10.4 13.7369 10.1471 14.3474 9.69701 14.7975C9.24692 15.2475 8.63647 15.5004 7.99995 15.5004C7.36343 15.5004 6.75298 15.2475 6.3029 14.7975C5.85281 14.3474 5.59995 13.7369 5.59995 13.1004M8.57675 1.9028L7.40395 1.9004C4.72875 1.894 2.40635 4.0676 2.38795 6.7004V9.7324C2.38795 10.3644 2.30795 10.9812 1.96315 11.5068L1.73355 11.8572C1.38395 12.3884 1.75995 13.1004 2.38795 13.1004H13.612C14.24 13.1004 14.6152 12.3884 14.2664 11.8572L14.0368 11.5068C13.6928 10.9812 13.612 10.3636 13.612 9.7316V6.70121C13.58 4.06761 11.252 1.9092 8.57675 1.9028V1.9028Z" stroke="#614C4C" stroke-width="2" stroke-linecap="round" stroke-linejoin="round"/>
</svg>
